<svg id="Ebene_1" data-name="Ebene 1" xmlns="http://www.w3.org/2000/svg" xmlns:xlink="http://www.w3.org/1999/xlink" viewBox="0 0 71.44 56.02"><defs><style>.cls-1{fill:none;}.cls-2{clip-path:url(#clip-path);}.cls-3{fill:#8d634b;}</style><clipPath id="clip-path" transform="translate(-11.64 -5.77)"><rect class="cls-1" x="3.21" y="5.77" width="93.87" height="70.35"/></clipPath></defs><g class="cls-2"><path class="cls-1" d="M12.37,61.06V28.54c0-13.52,10.77-21.34,12.26-22,1.48.65,12.22,8.38,12.24,22.08,0,7.07-.11,28.33-.14,32.51Z" transform="translate(-11.64 -5.77)"/><path class="cls-3" d="M24.64,7.32c2.17,1.26,11.5,8.73,11.5,21.25,0,6.73-.11,26.33-.14,31.79H13.12V28.54C13.11,16.16,22.46,8.6,24.64,7.32Zm0-1.55c-1,0-13,8.38-13,22.77V61.77H37.45s.16-25.32.16-33.23c0-14.62-12-22.73-13-22.73" transform="translate(-11.64 -5.77)"/><polygon class="cls-3" points="71.44 55.92 25.12 56.02 25.21 22.21 71.44 28.42 71.44 55.92"/></g></svg>